<?xml version="1.0" encoding="UTF-8" standalone="no"?>
<svg
   xmlns:dc="http://purl.org/dc/elements/1.1/"
   xmlns:cc="http://creativecommons.org/ns#"
   xmlns:rdf="http://www.w3.org/1999/02/22-rdf-syntax-ns#"
   xmlns:svg="http://www.w3.org/2000/svg"
   xmlns="http://www.w3.org/2000/svg"
   xmlns:sodipodi="http://sodipodi.sourceforge.net/DTD/sodipodi-0.dtd"
   xmlns:inkscape="http://www.inkscape.org/namespaces/inkscape"
   version="1.1"
   id="svg2"
   xml:space="preserve"
   width="746.66669"
   height="560"
   viewBox="0 0 746.66669 560"
   sodipodi:docname="9x4.eps"><metadata
     id="metadata8"><rdf:RDF><cc:Work
         rdf:about=""><dc:format>image/svg+xml</dc:format><dc:type
           rdf:resource="http://purl.org/dc/dcmitype/StillImage" /></cc:Work></rdf:RDF></metadata><defs
     id="defs6" /><sodipodi:namedview
     pagecolor="#ffffff"
     bordercolor="#666666"
     borderopacity="1"
     objecttolerance="10"
     gridtolerance="10"
     guidetolerance="10"
     inkscape:pageopacity="0"
     inkscape:pageshadow="2"
     inkscape:window-width="640"
     inkscape:window-height="480"
     id="namedview4" /><g
     id="g10"
     inkscape:groupmode="layer"
     inkscape:label="ink_ext_XXXXXX"
     transform="matrix(1.3333333,0,0,-1.3333333,0,560)"><g
       id="g12"
       transform="scale(0.1)"><path
         d="M 0,0 H 5600 V 4200 H 0 Z"
         style="fill:#ffffff;fill-opacity:1;fill-rule:nonzero;stroke:none"
         id="path14" /><path
         d="M 0,0 H 5600 V 4200 H 0 Z"
         style="fill:#ffffff;fill-opacity:1;fill-rule:nonzero;stroke:none"
         id="path16" /><path
         d="M 730,1041.94 2900,460 5070,1041.94 V 3303.06 L 2900,3885 730,3303.06"
         style="fill:#ffffff;fill-opacity:1;fill-rule:nonzero;stroke:none"
         id="path18" /><path
         d="m 1091.67,944.949 2170,581.931"
         style="fill:none;stroke:#dfdfdf;stroke-width:5;stroke-linecap:butt;stroke-linejoin:round;stroke-miterlimit:10;stroke-dasharray:none;stroke-opacity:1"
         id="path20" /><path
         d="M 1815,750.969 3985,1332.9"
         style="fill:none;stroke:#dfdfdf;stroke-width:5;stroke-linecap:butt;stroke-linejoin:round;stroke-miterlimit:10;stroke-dasharray:none;stroke-opacity:1"
         id="path22" /><path
         d="m 2538.33,556.988 2170,581.942"
         style="fill:none;stroke:#dfdfdf;stroke-width:5;stroke-linecap:butt;stroke-linejoin:round;stroke-miterlimit:10;stroke-dasharray:none;stroke-opacity:1"
         id="path24" /><path
         d="M 3261.67,1526.88 V 3788.01"
         style="fill:none;stroke:#dfdfdf;stroke-width:5;stroke-linecap:butt;stroke-linejoin:round;stroke-miterlimit:10;stroke-dasharray:none;stroke-opacity:1"
         id="path26" /><path
         d="M 3985,1332.9 V 3594.03"
         style="fill:none;stroke:#dfdfdf;stroke-width:5;stroke-linecap:butt;stroke-linejoin:round;stroke-miterlimit:10;stroke-dasharray:none;stroke-opacity:1"
         id="path28" /><path
         d="M 4708.33,1138.93 V 3400.05"
         style="fill:none;stroke:#dfdfdf;stroke-width:5;stroke-linecap:butt;stroke-linejoin:round;stroke-miterlimit:10;stroke-dasharray:none;stroke-opacity:1"
         id="path30" /><path
         d="M 3055,501.57 885,1083.5"
         style="fill:none;stroke:#dfdfdf;stroke-width:5;stroke-linecap:butt;stroke-linejoin:round;stroke-miterlimit:10;stroke-dasharray:none;stroke-opacity:1"
         id="path32" /><path
         d="M 3365,584.699 1195,1166.64"
         style="fill:none;stroke:#dfdfdf;stroke-width:5;stroke-linecap:butt;stroke-linejoin:round;stroke-miterlimit:10;stroke-dasharray:none;stroke-opacity:1"
         id="path34" /><path
         d="M 3675,667.828 1505,1249.77"
         style="fill:none;stroke:#dfdfdf;stroke-width:5;stroke-linecap:butt;stroke-linejoin:round;stroke-miterlimit:10;stroke-dasharray:none;stroke-opacity:1"
         id="path36" /><path
         d="M 3985,750.969 1815,1332.9"
         style="fill:none;stroke:#dfdfdf;stroke-width:5;stroke-linecap:butt;stroke-linejoin:round;stroke-miterlimit:10;stroke-dasharray:none;stroke-opacity:1"
         id="path38" /><path
         d="M 4295,834.102 2125,1416.04"
         style="fill:none;stroke:#dfdfdf;stroke-width:5;stroke-linecap:butt;stroke-linejoin:round;stroke-miterlimit:10;stroke-dasharray:none;stroke-opacity:1"
         id="path40" /><path
         d="M 4605,917.238 2435,1499.17"
         style="fill:none;stroke:#dfdfdf;stroke-width:5;stroke-linecap:butt;stroke-linejoin:round;stroke-miterlimit:10;stroke-dasharray:none;stroke-opacity:1"
         id="path42" /><path
         d="M 4915,1000.37 2745,1582.31"
         style="fill:none;stroke:#dfdfdf;stroke-width:5;stroke-linecap:butt;stroke-linejoin:round;stroke-miterlimit:10;stroke-dasharray:none;stroke-opacity:1"
         id="path44" /><path
         d="M 885,1083.5 V 3344.63"
         style="fill:none;stroke:#dfdfdf;stroke-width:5;stroke-linecap:butt;stroke-linejoin:round;stroke-miterlimit:10;stroke-dasharray:none;stroke-opacity:1"
         id="path46" /><path
         d="M 1195,1166.64 V 3427.76"
         style="fill:none;stroke:#dfdfdf;stroke-width:5;stroke-linecap:butt;stroke-linejoin:round;stroke-miterlimit:10;stroke-dasharray:none;stroke-opacity:1"
         id="path48" /><path
         d="M 1505,1249.77 V 3510.9"
         style="fill:none;stroke:#dfdfdf;stroke-width:5;stroke-linecap:butt;stroke-linejoin:round;stroke-miterlimit:10;stroke-dasharray:none;stroke-opacity:1"
         id="path50" /><path
         d="M 1815,1332.9 V 3594.03"
         style="fill:none;stroke:#dfdfdf;stroke-width:5;stroke-linecap:butt;stroke-linejoin:round;stroke-miterlimit:10;stroke-dasharray:none;stroke-opacity:1"
         id="path52" /><path
         d="M 2125,1416.04 V 3677.17"
         style="fill:none;stroke:#dfdfdf;stroke-width:5;stroke-linecap:butt;stroke-linejoin:round;stroke-miterlimit:10;stroke-dasharray:none;stroke-opacity:1"
         id="path54" /><path
         d="M 2435,1499.17 V 3760.3"
         style="fill:none;stroke:#dfdfdf;stroke-width:5;stroke-linecap:butt;stroke-linejoin:round;stroke-miterlimit:10;stroke-dasharray:none;stroke-opacity:1"
         id="path56" /><path
         d="M 2745,1582.31 V 3843.43"
         style="fill:none;stroke:#dfdfdf;stroke-width:5;stroke-linecap:butt;stroke-linejoin:round;stroke-miterlimit:10;stroke-dasharray:none;stroke-opacity:1"
         id="path58" /><path
         d="M 5070,1203.45 2900,1785.38"
         style="fill:none;stroke:#dfdfdf;stroke-width:5;stroke-linecap:butt;stroke-linejoin:round;stroke-miterlimit:10;stroke-dasharray:none;stroke-opacity:1"
         id="path60" /><path
         d="M 5070,1526.46 2900,2108.4"
         style="fill:none;stroke:#dfdfdf;stroke-width:5;stroke-linecap:butt;stroke-linejoin:round;stroke-miterlimit:10;stroke-dasharray:none;stroke-opacity:1"
         id="path62" /><path
         d="M 5070,1849.48 2900,2431.42"
         style="fill:none;stroke:#dfdfdf;stroke-width:5;stroke-linecap:butt;stroke-linejoin:round;stroke-miterlimit:10;stroke-dasharray:none;stroke-opacity:1"
         id="path64" /><path
         d="M 5070,2172.5 2900,2754.44"
         style="fill:none;stroke:#dfdfdf;stroke-width:5;stroke-linecap:butt;stroke-linejoin:round;stroke-miterlimit:10;stroke-dasharray:none;stroke-opacity:1"
         id="path66" /><path
         d="M 5070,2495.52 2900,3077.45"
         style="fill:none;stroke:#dfdfdf;stroke-width:5;stroke-linecap:butt;stroke-linejoin:round;stroke-miterlimit:10;stroke-dasharray:none;stroke-opacity:1"
         id="path68" /><path
         d="M 5070,2818.54 2900,3400.47"
         style="fill:none;stroke:#dfdfdf;stroke-width:5;stroke-linecap:butt;stroke-linejoin:round;stroke-miterlimit:10;stroke-dasharray:none;stroke-opacity:1"
         id="path70" /><path
         d="M 5070,3141.55 2900,3723.49"
         style="fill:none;stroke:#dfdfdf;stroke-width:5;stroke-linecap:butt;stroke-linejoin:round;stroke-miterlimit:10;stroke-dasharray:none;stroke-opacity:1"
         id="path72" /><path
         d="M 2900,1785.38 730,1203.45"
         style="fill:none;stroke:#dfdfdf;stroke-width:5;stroke-linecap:butt;stroke-linejoin:round;stroke-miterlimit:10;stroke-dasharray:none;stroke-opacity:1"
         id="path74" /><path
         d="M 2900,2108.4 730,1526.46"
         style="fill:none;stroke:#dfdfdf;stroke-width:5;stroke-linecap:butt;stroke-linejoin:round;stroke-miterlimit:10;stroke-dasharray:none;stroke-opacity:1"
         id="path76" /><path
         d="M 2900,2431.42 730,1849.48"
         style="fill:none;stroke:#dfdfdf;stroke-width:5;stroke-linecap:butt;stroke-linejoin:round;stroke-miterlimit:10;stroke-dasharray:none;stroke-opacity:1"
         id="path78" /><path
         d="M 2900,2754.44 730,2172.5"
         style="fill:none;stroke:#dfdfdf;stroke-width:5;stroke-linecap:butt;stroke-linejoin:round;stroke-miterlimit:10;stroke-dasharray:none;stroke-opacity:1"
         id="path80" /><path
         d="M 2900,3077.45 730,2495.52"
         style="fill:none;stroke:#dfdfdf;stroke-width:5;stroke-linecap:butt;stroke-linejoin:round;stroke-miterlimit:10;stroke-dasharray:none;stroke-opacity:1"
         id="path82" /><path
         d="M 2900,3400.47 730,2818.54"
         style="fill:none;stroke:#dfdfdf;stroke-width:5;stroke-linecap:butt;stroke-linejoin:round;stroke-miterlimit:10;stroke-dasharray:none;stroke-opacity:1"
         id="path84" /><path
         d="M 2900,3723.49 730,3141.55"
         style="fill:none;stroke:#dfdfdf;stroke-width:5;stroke-linecap:butt;stroke-linejoin:round;stroke-miterlimit:10;stroke-dasharray:none;stroke-opacity:1"
         id="path86" /><path
         d="M 730,1041.94 2900,460"
         style="fill:none;stroke:#262626;stroke-width:5;stroke-linecap:square;stroke-linejoin:round;stroke-miterlimit:10;stroke-dasharray:none;stroke-opacity:1"
         id="path88" /><path
         d="m 1091.67,944.949 -54.6,-14.64"
         style="fill:none;stroke:#262626;stroke-width:5;stroke-linecap:square;stroke-linejoin:round;stroke-miterlimit:10;stroke-dasharray:none;stroke-opacity:1"
         id="path90" /><path
         d="m 1815,750.969 -54.6,-14.637"
         style="fill:none;stroke:#262626;stroke-width:5;stroke-linecap:square;stroke-linejoin:round;stroke-miterlimit:10;stroke-dasharray:none;stroke-opacity:1"
         id="path92" /><path
         d="m 2538.33,556.988 -54.6,-14.636"
         style="fill:none;stroke:#262626;stroke-width:5;stroke-linecap:square;stroke-linejoin:round;stroke-miterlimit:10;stroke-dasharray:none;stroke-opacity:1"
         id="path94" /><g
         id="g96"
         transform="scale(10)"><text
           transform="matrix(1,0,0,-1,81.8434,81.9945)"
           style="font-variant:normal;font-weight:normal;font-size:10px;font-family:Helvetica;-inkscape-font-specification:Helvetica;writing-mode:lr-tb;fill:#262626;fill-opacity:1;fill-rule:nonzero;stroke:none"
           id="text104"><tspan
             x="0 3.3299999 8.8900003 11.67"
             y="0"
             sodipodi:role="line"
             id="tspan98">-0.2</tspan><tspan
             x="84.333199"
             y="19.398001"
             id="tspan100">0</tspan><tspan
             x="148.66679 154.22681 157.00681"
             y="38.7957"
             sodipodi:role="line"
             id="tspan102">0.2</tspan></text><text
           transform="matrix(1,0,0,-1,140.5,42.708175)"
           style="font-variant:normal;font-weight:normal;font-size:16px;font-family:Helvetica;-inkscape-font-specification:Helvetica;writing-mode:lr-tb;fill:#262626;fill-opacity:1;fill-rule:nonzero;stroke:none"
           id="text108"><tspan
             x="0"
             y="0"
             id="tspan106">X</tspan></text></g><path
         d="m 2900,460 2170,581.94"
         style="fill:none;stroke:#262626;stroke-width:5;stroke-linecap:square;stroke-linejoin:round;stroke-miterlimit:10;stroke-dasharray:none;stroke-opacity:1"
         id="path110" /><path
         d="m 3055,501.57 54.6,-14.64"
         style="fill:none;stroke:#262626;stroke-width:5;stroke-linecap:square;stroke-linejoin:round;stroke-miterlimit:10;stroke-dasharray:none;stroke-opacity:1"
         id="path112" /><path
         d="m 3365,584.699 54.6,-14.64"
         style="fill:none;stroke:#262626;stroke-width:5;stroke-linecap:square;stroke-linejoin:round;stroke-miterlimit:10;stroke-dasharray:none;stroke-opacity:1"
         id="path114" /><path
         d="m 3675,667.828 54.6,-14.637"
         style="fill:none;stroke:#262626;stroke-width:5;stroke-linecap:square;stroke-linejoin:round;stroke-miterlimit:10;stroke-dasharray:none;stroke-opacity:1"
         id="path116" /><path
         d="m 3985,750.969 54.6,-14.637"
         style="fill:none;stroke:#262626;stroke-width:5;stroke-linecap:square;stroke-linejoin:round;stroke-miterlimit:10;stroke-dasharray:none;stroke-opacity:1"
         id="path118" /><path
         d="m 4295,834.102 54.6,-14.641"
         style="fill:none;stroke:#262626;stroke-width:5;stroke-linecap:square;stroke-linejoin:round;stroke-miterlimit:10;stroke-dasharray:none;stroke-opacity:1"
         id="path120" /><path
         d="m 4605,917.238 54.6,-14.648"
         style="fill:none;stroke:#262626;stroke-width:5;stroke-linecap:square;stroke-linejoin:round;stroke-miterlimit:10;stroke-dasharray:none;stroke-opacity:1"
         id="path122" /><path
         d="m 4915,1000.37 54.6,-14.64"
         style="fill:none;stroke:#262626;stroke-width:5;stroke-linecap:square;stroke-linejoin:round;stroke-miterlimit:10;stroke-dasharray:none;stroke-opacity:1"
         id="path124" /><g
         id="g126"
         transform="scale(10)"><text
           transform="matrix(1,0,0,-1,314.823,37.6563)"
           style="font-variant:normal;font-weight:normal;font-size:10px;font-family:Helvetica;-inkscape-font-specification:Helvetica;writing-mode:lr-tb;fill:#262626;fill-opacity:1;fill-rule:nonzero;stroke:none"
           id="text142"><tspan
             x="0 3.3299999 8.8900003 11.67"
             y="0"
             sodipodi:role="line"
             id="tspan128">-0.6</tspan><tspan
             x="31 34.330002 39.889999 42.669998"
             y="-8.3136702"
             sodipodi:role="line"
             id="tspan130">-0.4</tspan><tspan
             x="62 65.330002 70.889999 73.669998"
             y="-16.626949"
             sodipodi:role="line"
             id="tspan132">-0.2</tspan><tspan
             x="93"
             y="-24.940229"
             id="tspan134">0</tspan><tspan
             x="124 129.56 132.34"
             y="-33.25351"
             sodipodi:role="line"
             id="tspan136">0.2</tspan><tspan
             x="155 160.56 163.34"
             y="-41.567181"
             sodipodi:role="line"
             id="tspan138">0.4</tspan><tspan
             x="186 191.56 194.34"
             y="-49.880459"
             sodipodi:role="line"
             id="tspan140">0.6</tspan></text><text
           transform="matrix(1,0,0,-1,434.6664,41.32226)"
           style="font-variant:normal;font-weight:normal;font-size:16px;font-family:Helvetica;-inkscape-font-specification:Helvetica;writing-mode:lr-tb;fill:#262626;fill-opacity:1;fill-rule:nonzero;stroke:none"
           id="text146"><tspan
             x="0"
             y="0"
             id="tspan144">Y</tspan></text></g><path
         d="M 730,1041.94 V 3303.06"
         style="fill:none;stroke:#262626;stroke-width:5;stroke-linecap:square;stroke-linejoin:round;stroke-miterlimit:10;stroke-dasharray:none;stroke-opacity:1"
         id="path148" /><path
         d="m 730,1203.45 -54.602,14.64"
         style="fill:none;stroke:#262626;stroke-width:5;stroke-linecap:square;stroke-linejoin:round;stroke-miterlimit:10;stroke-dasharray:none;stroke-opacity:1"
         id="path150" /><path
         d="m 730,1526.46 -54.602,14.65"
         style="fill:none;stroke:#262626;stroke-width:5;stroke-linecap:square;stroke-linejoin:round;stroke-miterlimit:10;stroke-dasharray:none;stroke-opacity:1"
         id="path152" /><path
         d="m 730,1849.48 -54.602,14.64"
         style="fill:none;stroke:#262626;stroke-width:5;stroke-linecap:square;stroke-linejoin:round;stroke-miterlimit:10;stroke-dasharray:none;stroke-opacity:1"
         id="path154" /><path
         d="m 730,2172.5 -54.602,14.64"
         style="fill:none;stroke:#262626;stroke-width:5;stroke-linecap:square;stroke-linejoin:round;stroke-miterlimit:10;stroke-dasharray:none;stroke-opacity:1"
         id="path156" /><path
         d="m 730,2495.52 -54.602,14.64"
         style="fill:none;stroke:#262626;stroke-width:5;stroke-linecap:square;stroke-linejoin:round;stroke-miterlimit:10;stroke-dasharray:none;stroke-opacity:1"
         id="path158" /><path
         d="m 730,2818.54 -54.602,14.64"
         style="fill:none;stroke:#262626;stroke-width:5;stroke-linecap:square;stroke-linejoin:round;stroke-miterlimit:10;stroke-dasharray:none;stroke-opacity:1"
         id="path160" /><path
         d="m 730,3141.55 -54.602,14.65"
         style="fill:none;stroke:#262626;stroke-width:5;stroke-linecap:square;stroke-linejoin:round;stroke-miterlimit:10;stroke-dasharray:none;stroke-opacity:1"
         id="path162" /><g
         id="g164"
         transform="scale(10)"><text
           transform="matrix(1,0,0,-1,45.6766,119.345)"
           style="font-variant:normal;font-weight:normal;font-size:10px;font-family:Helvetica;-inkscape-font-specification:Helvetica;writing-mode:lr-tb;fill:#262626;fill-opacity:1;fill-rule:nonzero;stroke:none"
           id="text180"><tspan
             x="0 3.3299999 8.8900003 11.67"
             y="0"
             sodipodi:role="line"
             id="tspan166">-0.6</tspan><tspan
             x="0 3.3299999 8.8900003 11.67"
             y="-32.301601"
             sodipodi:role="line"
             id="tspan168">-0.4</tspan><tspan
             x="0 3.3299999 8.8900003 11.67"
             y="-64.6036"
             sodipodi:role="line"
             id="tspan170">-0.2</tspan><tspan
             x="12"
             y="-96.905602"
             id="tspan172">0</tspan><tspan
             x="4 9.5600004 12.34"
             y="-129.2072"
             sodipodi:role="line"
             id="tspan174">0.2</tspan><tspan
             x="4 9.5600004 12.34"
             y="-161.5092"
             sodipodi:role="line"
             id="tspan176">0.4</tspan><tspan
             x="4 9.5600004 12.34"
             y="-193.8112"
             sodipodi:role="line"
             id="tspan178">0.6</tspan></text><text
           transform="matrix(0,1,1,0,35.4168,212.943)"
           style="font-variant:normal;font-weight:normal;font-size:16px;font-family:Helvetica;-inkscape-font-specification:Helvetica;writing-mode:lr-tb;fill:#262626;fill-opacity:1;fill-rule:nonzero;stroke:none"
           id="text184"><tspan
             x="0"
             y="0"
             id="tspan182">Z</tspan></text></g><path
         d="m 2125,1184.62 c 15.19,0 27.5,-12.31 27.5,-27.5 v 0 c 0,-15.19 -12.31,-27.5 -27.5,-27.5 -15.19,0 -27.5,12.31 -27.5,27.5 0,15.19 12.31,27.5 27.5,27.5 z m 0,5 c -17.95,0 -32.5,-14.55 -32.5,-32.5 0,-17.95 14.55,-32.5 32.5,-32.5 17.95,0 32.5,14.55 32.5,32.5 v 0 c 0,17.95 -14.55,32.5 -32.5,32.5"
         style="fill:#0072bd;fill-opacity:1;fill-rule:nonzero;stroke:none"
         id="path186" /><path
         d="m 2435,1267.75 c 15.19,0 27.5,-12.3 27.5,-27.5 v 0 c 0,-15.19 -12.31,-27.5 -27.5,-27.5 -15.19,0 -27.5,12.31 -27.5,27.5 0,15.2 12.31,27.5 27.5,27.5 z m 0,5 c -17.95,0 -32.5,-14.55 -32.5,-32.5 0,-17.95 14.55,-32.5 32.5,-32.5 17.95,0 32.5,14.55 32.5,32.5 v 0 c 0,17.95 -14.55,32.5 -32.5,32.5"
         style="fill:#0072bd;fill-opacity:1;fill-rule:nonzero;stroke:none"
         id="path188" /><path
         d="m 2745,1350.89 c 15.19,0 27.5,-12.31 27.5,-27.5 v 0 c 0,-15.19 -12.31,-27.5 -27.5,-27.5 -15.19,0 -27.5,12.31 -27.5,27.5 0,15.19 12.31,27.5 27.5,27.5 z m 0,5 c -17.95,0 -32.5,-14.55 -32.5,-32.5 0,-17.95 14.55,-32.5 32.5,-32.5 17.95,0 32.5,14.55 32.5,32.5 v 0 c 0,17.95 -14.55,32.5 -32.5,32.5"
         style="fill:#0072bd;fill-opacity:1;fill-rule:nonzero;stroke:none"
         id="path190" /><path
         d="m 3055,1434.02 c 15.19,0 27.5,-12.31 27.5,-27.5 v 0 c 0,-15.19 -12.31,-27.5 -27.5,-27.5 -15.19,0 -27.5,12.31 -27.5,27.5 0,15.19 12.31,27.5 27.5,27.5 z m 0,5 c -17.95,0 -32.5,-14.55 -32.5,-32.5 0,-17.95 14.55,-32.5 32.5,-32.5 17.95,0 32.5,14.55 32.5,32.5 v 0 c 0,17.95 -14.55,32.5 -32.5,32.5"
         style="fill:#0072bd;fill-opacity:1;fill-rule:nonzero;stroke:none"
         id="path192" /><path
         d="m 3365,1517.16 c 15.19,0 27.5,-12.32 27.5,-27.5 v 0 c 0,-15.2 -12.31,-27.5 -27.5,-27.5 -15.19,0 -27.5,12.3 -27.5,27.5 0,15.18 12.31,27.5 27.5,27.5 z m 0,5 c -17.95,0 -32.5,-14.55 -32.5,-32.5 0,-17.95 14.55,-32.5 32.5,-32.5 17.95,0 32.5,14.55 32.5,32.5 v 0 c 0,17.95 -14.55,32.5 -32.5,32.5"
         style="fill:#0072bd;fill-opacity:1;fill-rule:nonzero;stroke:none"
         id="path194" /><path
         d="m 3675,1600.29 c 15.19,0 27.5,-12.31 27.5,-27.5 v 0 c 0,-15.19 -12.31,-27.5 -27.5,-27.5 -15.19,0 -27.5,12.31 -27.5,27.5 0,15.19 12.31,27.5 27.5,27.5 z m 0,5 c -17.95,0 -32.5,-14.55 -32.5,-32.5 0,-17.95 14.55,-32.5 32.5,-32.5 17.95,0 32.5,14.55 32.5,32.5 v 0 c 0,17.95 -14.55,32.5 -32.5,32.5"
         style="fill:#0072bd;fill-opacity:1;fill-rule:nonzero;stroke:none"
         id="path196" /><path
         d="m 2125,1507.64 c 15.19,0 27.5,-12.31 27.5,-27.5 v 0 c 0,-15.19 -12.31,-27.5 -27.5,-27.5 -15.19,0 -27.5,12.31 -27.5,27.5 0,15.19 12.31,27.5 27.5,27.5 z m 0,5 c -17.95,0 -32.5,-14.55 -32.5,-32.5 0,-17.95 14.55,-32.5 32.5,-32.5 17.95,0 32.5,14.55 32.5,32.5 v 0 c 0,17.95 -14.55,32.5 -32.5,32.5"
         style="fill:#0072bd;fill-opacity:1;fill-rule:nonzero;stroke:none"
         id="path198" /><path
         d="m 2435,1590.77 c 15.19,0 27.5,-12.31 27.5,-27.5 v 0 c 0,-15.19 -12.31,-27.5 -27.5,-27.5 -15.19,0 -27.5,12.31 -27.5,27.5 0,15.19 12.31,27.5 27.5,27.5 z m 0,5 c -17.95,0 -32.5,-14.55 -32.5,-32.5 0,-17.95 14.55,-32.5 32.5,-32.5 17.95,0 32.5,14.55 32.5,32.5 v 0 c 0,17.95 -14.55,32.5 -32.5,32.5"
         style="fill:#0072bd;fill-opacity:1;fill-rule:nonzero;stroke:none"
         id="path200" /><path
         d="m 2745,1673.91 c 15.19,0 27.5,-12.31 27.5,-27.5 v 0 c 0,-15.2 -12.31,-27.5 -27.5,-27.5 -15.19,0 -27.5,12.3 -27.5,27.5 0,15.19 12.31,27.5 27.5,27.5 z m 0,5 c -17.95,0 -32.5,-14.55 -32.5,-32.5 0,-17.95 14.55,-32.5 32.5,-32.5 17.95,0 32.5,14.55 32.5,32.5 v 0 c 0,17.95 -14.55,32.5 -32.5,32.5"
         style="fill:#0072bd;fill-opacity:1;fill-rule:nonzero;stroke:none"
         id="path202" /><path
         d="m 3055,1757.04 c 15.19,0 27.5,-12.31 27.5,-27.5 v 0 c 0,-15.19 -12.31,-27.5 -27.5,-27.5 -15.19,0 -27.5,12.31 -27.5,27.5 0,15.19 12.31,27.5 27.5,27.5 z m 0,5 c -17.95,0 -32.5,-14.55 -32.5,-32.5 0,-17.95 14.55,-32.5 32.5,-32.5 17.95,0 32.5,14.55 32.5,32.5 v 0 c 0,17.95 -14.55,32.5 -32.5,32.5"
         style="fill:#0072bd;fill-opacity:1;fill-rule:nonzero;stroke:none"
         id="path204" /><path
         d="m 3365,1840.17 c 15.19,0 27.5,-12.31 27.5,-27.5 v 0 c 0,-15.19 -12.31,-27.5 -27.5,-27.5 -15.19,0 -27.5,12.31 -27.5,27.5 0,15.19 12.31,27.5 27.5,27.5 z m 0,5 c -17.95,0 -32.5,-14.54 -32.5,-32.5 0,-17.95 14.55,-32.5 32.5,-32.5 17.95,0 32.5,14.55 32.5,32.5 v 0 c 0,17.96 -14.55,32.5 -32.5,32.5"
         style="fill:#0072bd;fill-opacity:1;fill-rule:nonzero;stroke:none"
         id="path206" /><path
         d="m 3675,1923.31 c 15.19,0 27.5,-12.31 27.5,-27.5 v 0 c 0,-15.19 -12.31,-27.5 -27.5,-27.5 -15.19,0 -27.5,12.31 -27.5,27.5 0,15.19 12.31,27.5 27.5,27.5 z m 0,5 c -17.95,0 -32.5,-14.55 -32.5,-32.5 0,-17.95 14.55,-32.5 32.5,-32.5 17.95,0 32.5,14.55 32.5,32.5 v 0 c 0,17.95 -14.55,32.5 -32.5,32.5"
         style="fill:#0072bd;fill-opacity:1;fill-rule:nonzero;stroke:none"
         id="path208" /><path
         d="m 2125,1830.66 c 15.19,0 27.5,-12.31 27.5,-27.5 v 0 c 0,-15.2 -12.31,-27.5 -27.5,-27.5 -15.19,0 -27.5,12.3 -27.5,27.5 0,15.19 12.31,27.5 27.5,27.5 z m 0,5 c -17.95,0 -32.5,-14.55 -32.5,-32.5 0,-17.95 14.55,-32.5 32.5,-32.5 17.95,0 32.5,14.55 32.5,32.5 v 0 c 0,17.95 -14.55,32.5 -32.5,32.5"
         style="fill:#0072bd;fill-opacity:1;fill-rule:nonzero;stroke:none"
         id="path210" /><path
         d="m 2435,1913.79 c 15.19,0 27.5,-12.31 27.5,-27.5 v 0 c 0,-15.19 -12.31,-27.5 -27.5,-27.5 -15.19,0 -27.5,12.31 -27.5,27.5 0,15.19 12.31,27.5 27.5,27.5 z m 0,5 c -17.95,0 -32.5,-14.55 -32.5,-32.5 0,-17.95 14.55,-32.5 32.5,-32.5 17.95,0 32.5,14.55 32.5,32.5 v 0 c 0,17.95 -14.55,32.5 -32.5,32.5"
         style="fill:#0072bd;fill-opacity:1;fill-rule:nonzero;stroke:none"
         id="path212" /><path
         d="m 2745,1996.93 c 15.19,0 27.5,-12.32 27.5,-27.5 v 0 c 0,-15.2 -12.31,-27.5 -27.5,-27.5 -15.19,0 -27.5,12.3 -27.5,27.5 0,15.18 12.31,27.5 27.5,27.5 z m 0,5 c -17.95,0 -32.5,-14.55 -32.5,-32.5 0,-17.96 14.55,-32.5 32.5,-32.5 17.95,0 32.5,14.54 32.5,32.5 v 0 c 0,17.95 -14.55,32.5 -32.5,32.5"
         style="fill:#0072bd;fill-opacity:1;fill-rule:nonzero;stroke:none"
         id="path214" /><path
         d="m 3055,2080.06 c 15.19,0 27.5,-12.31 27.5,-27.5 v 0 c 0,-15.19 -12.31,-27.5 -27.5,-27.5 -15.19,0 -27.5,12.31 -27.5,27.5 0,15.19 12.31,27.5 27.5,27.5 z m 0,5 c -17.95,0 -32.5,-14.55 -32.5,-32.5 0,-17.95 14.55,-32.5 32.5,-32.5 17.95,0 32.5,14.55 32.5,32.5 v 0 c 0,17.95 -14.55,32.5 -32.5,32.5"
         style="fill:#0072bd;fill-opacity:1;fill-rule:nonzero;stroke:none"
         id="path216" /><path
         d="m 3365,2163.19 c 15.19,0 27.5,-12.31 27.5,-27.5 v 0 c 0,-15.19 -12.31,-27.5 -27.5,-27.5 -15.19,0 -27.5,12.31 -27.5,27.5 0,15.19 12.31,27.5 27.5,27.5 z m 0,5 c -17.95,0 -32.5,-14.55 -32.5,-32.5 0,-17.95 14.55,-32.5 32.5,-32.5 17.95,0 32.5,14.55 32.5,32.5 v 0 c 0,17.95 -14.55,32.5 -32.5,32.5"
         style="fill:#0072bd;fill-opacity:1;fill-rule:nonzero;stroke:none"
         id="path218" /><path
         d="m 3675,2246.32 c 15.19,0 27.5,-12.3 27.5,-27.5 v 0 c 0,-15.18 -12.31,-27.5 -27.5,-27.5 -15.19,0 -27.5,12.32 -27.5,27.5 0,15.2 12.31,27.5 27.5,27.5 z m 0,5 c -17.95,0 -32.5,-14.54 -32.5,-32.5 0,-17.94 14.55,-32.5 32.5,-32.5 17.95,0 32.5,14.56 32.5,32.5 v 0 c 0,17.96 -14.55,32.5 -32.5,32.5"
         style="fill:#0072bd;fill-opacity:1;fill-rule:nonzero;stroke:none"
         id="path220" /><path
         d="m 2125,2153.68 c 15.19,0 27.5,-12.32 27.5,-27.5 v 0 c 0,-15.2 -12.31,-27.5 -27.5,-27.5 -15.19,0 -27.5,12.3 -27.5,27.5 0,15.18 12.31,27.5 27.5,27.5 z m 0,5 c -17.95,0 -32.5,-14.55 -32.5,-32.5 0,-17.95 14.55,-32.5 32.5,-32.5 17.95,0 32.5,14.55 32.5,32.5 v 0 c 0,17.95 -14.55,32.5 -32.5,32.5"
         style="fill:#0072bd;fill-opacity:1;fill-rule:nonzero;stroke:none"
         id="path222" /><path
         d="m 2435,2236.81 c 15.19,0 27.5,-12.31 27.5,-27.5 v 0 c 0,-15.19 -12.31,-27.5 -27.5,-27.5 -15.19,0 -27.5,12.31 -27.5,27.5 0,15.19 12.31,27.5 27.5,27.5 z m 0,5 c -17.95,0 -32.5,-14.55 -32.5,-32.5 0,-17.95 14.55,-32.5 32.5,-32.5 17.95,0 32.5,14.55 32.5,32.5 v 0 c 0,17.95 -14.55,32.5 -32.5,32.5"
         style="fill:#0072bd;fill-opacity:1;fill-rule:nonzero;stroke:none"
         id="path224" /><path
         d="m 2745,2319.94 c 15.19,0 27.5,-12.31 27.5,-27.5 v 0 c 0,-15.19 -12.31,-27.5 -27.5,-27.5 -15.19,0 -27.5,12.31 -27.5,27.5 0,15.19 12.31,27.5 27.5,27.5 z m 0,5 c -17.95,0 -32.5,-14.55 -32.5,-32.5 0,-17.95 14.55,-32.5 32.5,-32.5 17.95,0 32.5,14.55 32.5,32.5 v 0 c 0,17.95 -14.55,32.5 -32.5,32.5"
         style="fill:#0072bd;fill-opacity:1;fill-rule:nonzero;stroke:none"
         id="path226" /><path
         d="m 3055,2403.07 c 15.19,0 27.5,-12.3 27.5,-27.5 v 0 c 0,-15.18 -12.31,-27.5 -27.5,-27.5 -15.19,0 -27.5,12.32 -27.5,27.5 0,15.2 12.31,27.5 27.5,27.5 z m 0,5 c -17.95,0 -32.5,-14.54 -32.5,-32.5 0,-17.94 14.55,-32.5 32.5,-32.5 17.95,0 32.5,14.56 32.5,32.5 v 0 c 0,17.96 -14.55,32.5 -32.5,32.5"
         style="fill:#0072bd;fill-opacity:1;fill-rule:nonzero;stroke:none"
         id="path228" /><path
         d="m 3365,2486.21 c 15.19,0 27.5,-12.31 27.5,-27.5 v 0 c 0,-15.19 -12.31,-27.5 -27.5,-27.5 -15.19,0 -27.5,12.31 -27.5,27.5 0,15.19 12.31,27.5 27.5,27.5 z m 0,5 c -17.95,0 -32.5,-14.55 -32.5,-32.5 0,-17.95 14.55,-32.5 32.5,-32.5 17.95,0 32.5,14.55 32.5,32.5 v 0 c 0,17.95 -14.55,32.5 -32.5,32.5"
         style="fill:#0072bd;fill-opacity:1;fill-rule:nonzero;stroke:none"
         id="path230" /><path
         d="m 3675,2569.34 c 15.19,0 27.5,-12.3 27.5,-27.5 v 0 c 0,-15.19 -12.31,-27.5 -27.5,-27.5 -15.19,0 -27.5,12.31 -27.5,27.5 0,15.2 12.31,27.5 27.5,27.5 z m 0,5 c -17.95,0 -32.5,-14.55 -32.5,-32.5 0,-17.95 14.55,-32.5 32.5,-32.5 17.95,0 32.5,14.55 32.5,32.5 v 0 c 0,17.95 -14.55,32.5 -32.5,32.5"
         style="fill:#0072bd;fill-opacity:1;fill-rule:nonzero;stroke:none"
         id="path232" /><path
         d="m 2125,2476.69 c 15.19,0 27.5,-12.31 27.5,-27.5 v 0 c 0,-15.19 -12.31,-27.5 -27.5,-27.5 -15.19,0 -27.5,12.31 -27.5,27.5 0,15.19 12.31,27.5 27.5,27.5 z m 0,5 c -17.95,0 -32.5,-14.55 -32.5,-32.5 0,-17.95 14.55,-32.5 32.5,-32.5 17.95,0 32.5,14.55 32.5,32.5 v 0 c 0,17.95 -14.55,32.5 -32.5,32.5"
         style="fill:#0072bd;fill-opacity:1;fill-rule:nonzero;stroke:none"
         id="path234" /><path
         d="m 2435,2559.83 c 15.19,0 27.5,-12.31 27.5,-27.5 v 0 c 0,-15.19 -12.31,-27.5 -27.5,-27.5 -15.19,0 -27.5,12.31 -27.5,27.5 0,15.19 12.31,27.5 27.5,27.5 z m 0,5 c -17.95,0 -32.5,-14.55 -32.5,-32.5 0,-17.95 14.55,-32.5 32.5,-32.5 17.95,0 32.5,14.55 32.5,32.5 v 0 c 0,17.95 -14.55,32.5 -32.5,32.5"
         style="fill:#0072bd;fill-opacity:1;fill-rule:nonzero;stroke:none"
         id="path236" /><path
         d="m 2745,2642.96 c 15.19,0 27.5,-12.31 27.5,-27.5 v 0 c 0,-15.19 -12.31,-27.5 -27.5,-27.5 -15.19,0 -27.5,12.31 -27.5,27.5 0,15.19 12.31,27.5 27.5,27.5 z m 0,5 c -17.95,0 -32.5,-14.55 -32.5,-32.5 0,-17.95 14.55,-32.5 32.5,-32.5 17.95,0 32.5,14.55 32.5,32.5 v 0 c 0,17.95 -14.55,32.5 -32.5,32.5"
         style="fill:#0072bd;fill-opacity:1;fill-rule:nonzero;stroke:none"
         id="path238" /><path
         d="m 3055,2726.09 c 15.19,0 27.5,-12.3 27.5,-27.5 v 0 c 0,-15.19 -12.31,-27.5 -27.5,-27.5 -15.19,0 -27.5,12.31 -27.5,27.5 0,15.2 12.31,27.5 27.5,27.5 z m 0,5 c -17.95,0 -32.5,-14.55 -32.5,-32.5 0,-17.95 14.55,-32.5 32.5,-32.5 17.95,0 32.5,14.55 32.5,32.5 v 0 c 0,17.95 -14.55,32.5 -32.5,32.5"
         style="fill:#0072bd;fill-opacity:1;fill-rule:nonzero;stroke:none"
         id="path240" /><path
         d="m 3365,2809.23 c 15.19,0 27.5,-12.31 27.5,-27.5 v 0 c 0,-15.19 -12.31,-27.5 -27.5,-27.5 -15.19,0 -27.5,12.31 -27.5,27.5 0,15.19 12.31,27.5 27.5,27.5 z m 0,5 c -17.95,0 -32.5,-14.55 -32.5,-32.5 0,-17.95 14.55,-32.5 32.5,-32.5 17.95,0 32.5,14.55 32.5,32.5 v 0 c 0,17.95 -14.55,32.5 -32.5,32.5"
         style="fill:#0072bd;fill-opacity:1;fill-rule:nonzero;stroke:none"
         id="path242" /><path
         d="m 3675,2892.36 c 15.19,0 27.5,-12.31 27.5,-27.5 v 0 c 0,-15.19 -12.31,-27.5 -27.5,-27.5 -15.19,0 -27.5,12.31 -27.5,27.5 0,15.19 12.31,27.5 27.5,27.5 z m 0,5 c -17.95,0 -32.5,-14.55 -32.5,-32.5 0,-17.95 14.55,-32.5 32.5,-32.5 17.95,0 32.5,14.55 32.5,32.5 v 0 c 0,17.95 -14.55,32.5 -32.5,32.5"
         style="fill:#0072bd;fill-opacity:1;fill-rule:nonzero;stroke:none"
         id="path244" /><path
         d="m 2125,2799.71 c 15.19,0 27.5,-12.31 27.5,-27.5 v 0 c 0,-15.19 -12.31,-27.5 -27.5,-27.5 -15.19,0 -27.5,12.31 -27.5,27.5 0,15.19 12.31,27.5 27.5,27.5 z m 0,5 c -17.95,0 -32.5,-14.55 -32.5,-32.5 0,-17.95 14.55,-32.5 32.5,-32.5 17.95,0 32.5,14.55 32.5,32.5 v 0 c 0,17.95 -14.55,32.5 -32.5,32.5"
         style="fill:#0072bd;fill-opacity:1;fill-rule:nonzero;stroke:none"
         id="path246" /><path
         d="m 2435,2882.84 c 15.19,0 27.5,-12.3 27.5,-27.5 v 0 c 0,-15.18 -12.31,-27.5 -27.5,-27.5 -15.19,0 -27.5,12.32 -27.5,27.5 0,15.2 12.31,27.5 27.5,27.5 z m 0,5 c -17.95,0 -32.5,-14.55 -32.5,-32.5 0,-17.95 14.55,-32.5 32.5,-32.5 17.95,0 32.5,14.55 32.5,32.5 v 0 c 0,17.95 -14.55,32.5 -32.5,32.5"
         style="fill:#0072bd;fill-opacity:1;fill-rule:nonzero;stroke:none"
         id="path248" /><path
         d="m 2745,2965.98 c 15.19,0 27.5,-12.31 27.5,-27.5 v 0 c 0,-15.19 -12.31,-27.5 -27.5,-27.5 -15.19,0 -27.5,12.31 -27.5,27.5 0,15.19 12.31,27.5 27.5,27.5 z m 0,5 c -17.95,0 -32.5,-14.55 -32.5,-32.5 0,-17.95 14.55,-32.5 32.5,-32.5 17.95,0 32.5,14.55 32.5,32.5 v 0 c 0,17.95 -14.55,32.5 -32.5,32.5"
         style="fill:#0072bd;fill-opacity:1;fill-rule:nonzero;stroke:none"
         id="path250" /><path
         d="m 3055,3049.11 c 15.19,0 27.5,-12.31 27.5,-27.5 v 0 c 0,-15.19 -12.31,-27.5 -27.5,-27.5 -15.19,0 -27.5,12.31 -27.5,27.5 0,15.19 12.31,27.5 27.5,27.5 z m 0,5 c -17.95,0 -32.5,-14.55 -32.5,-32.5 0,-17.95 14.55,-32.5 32.5,-32.5 17.95,0 32.5,14.55 32.5,32.5 v 0 c 0,17.95 -14.55,32.5 -32.5,32.5"
         style="fill:#0072bd;fill-opacity:1;fill-rule:nonzero;stroke:none"
         id="path252" /><path
         d="m 3365,3132.25 c 15.19,0 27.5,-12.31 27.5,-27.5 v 0 c 0,-15.2 -12.31,-27.5 -27.5,-27.5 -15.19,0 -27.5,12.3 -27.5,27.5 0,15.19 12.31,27.5 27.5,27.5 z m 0,5 c -17.95,0 -32.5,-14.55 -32.5,-32.5 0,-17.95 14.55,-32.5 32.5,-32.5 17.95,0 32.5,14.55 32.5,32.5 v 0 c 0,17.95 -14.55,32.5 -32.5,32.5"
         style="fill:#0072bd;fill-opacity:1;fill-rule:nonzero;stroke:none"
         id="path254" /><path
         d="m 3675,3215.38 c 15.19,0 27.5,-12.31 27.5,-27.5 v 0 c 0,-15.19 -12.31,-27.5 -27.5,-27.5 -15.19,0 -27.5,12.31 -27.5,27.5 0,15.19 12.31,27.5 27.5,27.5 z m 0,5 c -17.95,0 -32.5,-14.55 -32.5,-32.5 0,-17.95 14.55,-32.5 32.5,-32.5 17.95,0 32.5,14.55 32.5,32.5 v 0 c 0,17.95 -14.55,32.5 -32.5,32.5"
         style="fill:#0072bd;fill-opacity:1;fill-rule:nonzero;stroke:none"
         id="path256" /><path
         d="m 2878.79,2193.71 42.42,-42.42 m -42.42,0 42.42,42.42"
         style="fill:none;stroke:#ff0000;stroke-width:5;stroke-linecap:butt;stroke-linejoin:miter;stroke-miterlimit:10;stroke-dasharray:none;stroke-opacity:1"
         id="path258" /></g></g></svg>
